HIERARCHY
ROOT Hips
{
	OFFSET 0.000000 0.000000 0.000000
	CHANNELS 6 Xposition Yposition Zposition Zrotation Yrotation Xrotation 
	JOINT LowerBack
	{
		OFFSET 0.000000 0.000000 0.000000
		CHANNELS 3 Zrotation Yrotation Xrotation
		JOINT Spine
		{
			OFFSET 0.028270 2.035590 -0.193380
			CHANNELS 3 Zrotation Yrotation Xrotation
			JOINT Spine1
			{
				OFFSET 0.056720 2.048850 -0.042750
				CHANNELS 3 Zrotation Yrotation Xrotation
				JOINT Neck
				{
					OFFSET 0.000000 0.000000 0.000000
					CHANNELS 3 Zrotation Yrotation Xrotation
					JOINT Neck1
					{
						OFFSET -0.054170 1.746240 0.172020
						CHANNELS 3 Zrotation Yrotation Xrotation
						JOINT Head
						{
							OFFSET 0.104070 1.761360 -0.123970
							CHANNELS 3 Zrotation Yrotation Xrotation
							End Site
							{
								OFFSET 0.000000 0.000000 0.000000
							}
						}
					}
				}
				JOINT LeftShoulder
				{
					OFFSET 0.000000 0.000000 0.000000
					CHANNELS 3 Zrotation Yrotation Xrotation
					JOINT LeftArm
					{
						OFFSET 3.362410 1.200890 -0.311210
						CHANNELS 3 Zrotation Yrotation Xrotation
						JOINT LeftForeArm
						{
							OFFSET 4.983000 -0.000000 -0.000000
							CHANNELS 3 Zrotation Yrotation Xrotation
							JOINT LeftHand
							{
								OFFSET 3.483560 -0.000000 -0.000000
								CHANNELS 3 Zrotation Yrotation Xrotation
								JOINT LeftFingerBase
								{
									OFFSET 0.000000 0.000000 0.000000
									CHANNELS 3 Zrotation Yrotation Xrotation
									JOINT LeftHandIndex1
									{
										OFFSET 0.715260 -0.000000 -0.000000
										CHANNELS 3 Zrotation Yrotation Xrotation
										End Site
										{
											OFFSET 0.000000 0.000000 0.000000
										}
									}
								}
								JOINT LThumb
								{
									OFFSET 0.000000 0.000000 0.000000
									CHANNELS 3 Zrotation Yrotation Xrotation
									End Site
									{
										OFFSET 0.000000 0.000000 0.000000
									}
								}
							}
						}
					}
				}
				JOINT RightShoulder
				{
					OFFSET 0.000000 0.000000 0.000000
					CHANNELS 3 Zrotation Yrotation Xrotation
					JOINT RightArm
					{
						OFFSET -3.136600 1.374050 -0.404650
						CHANNELS 3 Zrotation Yrotation Xrotation
						JOINT RightForeArm
						{
							OFFSET -5.241900 -0.000000 -0.000000
							CHANNELS 3 Zrotation Yrotation Xrotation
							JOINT RightHand
							{
								OFFSET -3.444170 -0.000000 -0.000000
								CHANNELS 3 Zrotation Yrotation Xrotation
								JOINT RightFingerBase
								{
									OFFSET 0.000000 0.000000 0.000000
									CHANNELS 3 Zrotation Yrotation Xrotation
									JOINT RightHandIndex1
									{
										OFFSET -0.622530 -0.000000 -0.000000
										CHANNELS 3 Zrotation Yrotation Xrotation
										End Site
										{
											OFFSET 0.000000 0.000000 0.000000
										}
									}
								}
								JOINT RThumb
								{
									OFFSET 0.000000 0.000000 0.000000
									CHANNELS 3 Zrotation Yrotation Xrotation
									End Site
									{
										OFFSET 0.000000 0.000000 0.000000
									}
								}
							}
						}
					}
				}
			}
		}
	}
}
}
MOTION
Frames: 9
Frame Time: 0.008333
5.452100 15.725519 1.855406 -18.213003 -86.938932 51.725373 10.176138 -2.445295 3.962217 1.833851 -2.718248 -2.450481 -4.499345 -2.843698 -1.024008 8.341892 -1.071431 1.269040 -2.490045 -0.266638 2.153419 0.000000 0.000000 0.000000 -0.068238 -7.745513 -2.014442 -83.938639 -44.498227 38.459778 -179.503901 -86.911581 -179.996159 0.440968 -5.570360 -0.025845 -0.060988 0.754172 -0.000000 0.000000 0.000000 0.000000 0.000000 0.000000 0.000000 8.330694 -0.480698 5.293141 50.948423 -9.671724 15.714198 4.226038 27.992493 0.002260 8.391070 -1.661811 -0.118107 0.092936 -0.030004 0.000000 0.000000 0.000000 0.000000 0.000000 0.000000 0.000000 
5.234355 15.599825 1.847445 -25.899963 -87.082250 58.800895 10.452391 -2.477841 4.578961 1.840775 -2.721654 -2.323092 -4.668012 -2.850138 -1.090629 8.696680 -0.386207 1.406285 -2.555609 -0.270408 2.180925 0.000000 0.000000 0.000000 -0.890756 -8.233557 -1.625512 -82.061204 -44.941753 37.301769 -179.532061 -87.280162 -179.995183 0.350390 -5.668606 -0.021093 -0.058825 0.755121 -0.000000 0.000000 0.000000 0.000000 0.000000 0.000000 0.000000 9.059947 0.120801 5.309621 50.020007 -9.181323 15.494593 4.264585 27.499328 0.003144 8.202905 -1.321777 -0.090988 0.095268 -0.033129 0.000000 0.000000 0.000000 0.000000 0.000000 0.000000 0.000000 
5.022415 15.486213 1.838406 -32.920094 -87.105081 65.212432 10.714099 -2.547746 5.238475 1.834749 -2.755032 -2.189758 -4.871647 -2.887779 -1.167177 9.162710 0.443697 1.602643 -2.641484 -0.275612 2.223238 0.000000 0.000000 0.000000 -1.736380 -8.784641 -1.205312 -80.058270 -45.238210 35.962743 -179.579059 -87.847130 -179.994636 0.302294 -5.784133 -0.018729 -0.057558 0.755191 -0.000000 0.000000 0.000000 0.000000 0.000000 0.000000 0.000000 10.010975 0.781548 5.300419 49.047257 -8.525595 15.035482 4.308955 26.716158 0.004172 8.032669 -0.921809 -0.061071 0.097336 -0.036414 0.000000 0.000000 0.000000 0.000000 0.000000 0.000000 0.000000 
4.815318 15.385594 1.827428 -38.792632 -87.037905 70.496581 10.945305 -2.648609 5.923122 1.812886 -2.812817 -2.051682 -5.107469 -2.950913 -1.243139 9.729192 1.346371 1.839703 -2.745805 -0.281898 2.275563 0.000000 0.000000 0.000000 -2.566819 -9.363595 -0.777778 -77.999470 -45.356633 34.485440 -179.649229 -88.654212 -179.994817 0.323230 -5.917217 -0.020457 -0.057616 0.753708 -0.000000 0.000000 0.000000 0.000000 0.000000 0.000000 0.000000 11.159996 1.428800 5.264162 48.051867 -7.602527 14.366971 4.357449 25.575897 0.005332 7.839123 -0.454541 -0.027758 0.099404 -0.039890 0.000000 0.000000 0.000000 0.000000 0.000000 0.000000 0.000000 
4.612082 15.298330 1.813668 -43.305259 -86.923495 74.451704 11.118978 -2.771288 6.611855 1.771552 -2.887188 -1.915826 -5.368111 -3.032166 -1.325347 10.384289 2.336533 2.119333 -2.864392 -0.289042 2.339176 0.000000 0.000000 0.000000 -3.347884 -9.953345 -0.358416 -75.954960 -45.254895 32.906346 -179.745524 -89.746991 -179.996015 0.439058 -6.064844 -0.027977 -0.059322 0.749989 -0.000000 0.000000 0.000000 0.000000 0.000000 0.000000 0.000000 12.477311 2.090307 5.200165 47.091730 -6.473130 13.328661 4.402113 24.082618 0.006574 7.609757 0.044452 0.006155 0.101262 -0.043739 0.000000 0.000000 0.000000 0.000000 0.000000 0.000000 0.000000 
4.411555 15.224198 1.796449 -46.461976 -86.803749 77.089293 11.207721 -2.907099 7.281284 1.707946 -2.971703 -1.789820 -5.644262 -3.125553 -1.420723 11.110615 3.432388 2.443649 -2.991498 -0.296761 2.415470 0.000000 0.000000 0.000000 -4.052045 -10.535810 0.039946 -74.000694 -44.905587 31.272908 0.130630 -88.823402 0.001539 0.673330 -6.220252 -0.043092 -0.062905 0.743200 -0.000000 0.000000 0.000000 0.000000 0.000000 0.000000 0.000000 13.921227 2.803411 5.108379 46.230046 -5.220306 11.741223 4.430442 22.264523 0.007827 7.316840 0.537571 0.037262 0.102581 -0.048264 0.000000 0.000000 0.000000 0.000000 0.000000 0.000000 0.000000 
4.212383 15.162476 1.775437 -48.380772 -86.709910 78.538569 11.192463 -3.049831 7.909858 1.620690 -3.063197 -1.673965 -5.929314 -3.227400 -1.512868 11.877333 4.530379 2.783074 -3.124487 -0.304658 2.496493 0.000000 0.000000 0.000000 -4.651883 -11.069807 0.396397 -72.223693 -44.332450 29.656578 -0.020823 -86.999133 -0.002282 1.043959 -6.374206 -0.067406 -0.068438 0.732280 -0.000000 0.000000 0.000000 0.000000 0.000000 0.000000 0.000000 15.441984 3.474960 4.989353 45.485530 -3.732348 9.665775 4.430057 20.101052 0.009019 6.858806 1.041654 0.065064 0.103395 -0.053731 0.000000 0.000000 0.000000 0.000000 0.000000 0.000000 0.000000 
4.013466 15.112184 1.750562 -49.220071 -86.661659 78.962806 11.065972 -3.190641 8.473980 1.511624 -3.156206 -1.573333 -6.213472 -3.332145 -1.600641 12.656325 5.624408 3.130224 -3.258348 -0.312486 2.580747 0.000000 0.000000 0.000000 -5.137510 -11.534036 0.706953 -70.686005 -43.565161 28.107076 -0.197173 -84.724013 -0.007456 1.562870 -6.510702 -0.101826 -0.075792 0.716439 -0.000000 0.000000 0.000000 0.000000 0.000000 0.000000 0.000000 16.989017 4.122774 4.844797 44.896916 -2.072500 6.996163 4.381981 17.666677 0.009995 6.163240 1.548889 0.085560 0.103183 -0.060459 0.000000 0.000000 0.000000 0.000000 0.000000 0.000000 0.000000 
3.813737 15.072154 1.722091 -49.145572 -86.665941 78.533996 10.832284 -3.320423 8.953241 1.384628 -3.244734 -1.489542 -6.488205 -3.433166 -1.674169 13.416412 6.668760 3.466115 -3.390215 -0.320038 2.663208 0.000000 0.000000 0.000000 -5.505436 -11.903039 0.969424 -69.437877 -42.665604 26.670750 -0.393551 -81.944655 -0.013885 2.234267 -6.609404 -0.146456 -0.084674 0.695120 -0.000000 0.000000 0.000000 0.000000 0.000000 0.000000 0.000000 18.515361 4.722426 4.678044 44.468701 -0.251961 3.776375 4.268528 15.063581 0.010515 5.128675 2.086524 0.094949 0.101577 -0.068509 0.000000 0.000000 0.000000 0.000000 0.000000 0.000000 0.000000 
